<svg width="56" height="56" viewBox="0 0 56 56" fill="none" xmlns="http://www.w3.org/2000/svg">
<path d="M0 28C0 12.536 12.536 0 28 0C43.464 0 56 12.536 56 28C56 43.464 43.464 56 28 56C12.536 56 0 43.464 0 28Z" fill="#0EA5E9"/>
<path d="M38.6663 25.3332C38.6663 31.9905 31.281 38.9238 28.801 41.0652C28.57 41.2389 28.2887 41.3328 27.9997 41.3328C27.7106 41.3328 27.4294 41.2389 27.1983 41.0652C24.7183 38.9238 17.333 31.9905 17.333 25.3332C17.333 22.5042 18.4568 19.7911 20.4572 17.7907C22.4576 15.7903 25.1707 14.6665 27.9997 14.6665C30.8287 14.6665 33.5418 15.7903 35.5421 17.7907C37.5425 19.7911 38.6663 22.5042 38.6663 25.3332Z" stroke="white" stroke-width="2.66667" stroke-linecap="round" stroke-linejoin="round"/>
<path d="M28 29.3335C30.2091 29.3335 32 27.5426 32 25.3335C32 23.1244 30.2091 21.3335 28 21.3335C25.7909 21.3335 24 23.1244 24 25.3335C24 27.5426 25.7909 29.3335 28 29.3335Z" stroke="white" stroke-width="2.66667" stroke-linecap="round" stroke-linejoin="round"/>
</svg>
