<svg width="57" height="20" viewBox="0 0 57 20" fill="none" xmlns="http://www.w3.org/2000/svg">
<path d="M0 10C0 4.47715 4.47715 0 10 0H46.7656C52.2885 0 56.7656 4.47715 56.7656 10C56.7656 15.5228 52.2885 20 46.7656 20H10C4.47715 20 0 15.5228 0 10Z" fill="url(#paint0_linear_242_2139)"/>
<g clip-path="url(#clip0_242_2139)">
<path d="M13.5087 5.40722C13.5301 5.29252 13.591 5.18893 13.6808 5.11438C13.7705 5.03983 13.8835 4.99902 14.0002 4.99902C14.1169 4.99902 14.2299 5.03983 14.3197 5.11438C14.4094 5.18893 14.4703 5.29252 14.4917 5.40722L15.0172 8.18622C15.0545 8.38379 15.1506 8.56553 15.2927 8.70771C15.4349 8.84988 15.6166 8.9459 15.8142 8.98322L18.5932 9.50872C18.7079 9.53014 18.8115 9.59101 18.8861 9.68077C18.9606 9.77053 19.0014 9.88354 19.0014 10.0002C19.0014 10.1169 18.9606 10.2299 18.8861 10.3197C18.8115 10.4094 18.7079 10.4703 18.5932 10.4917L15.8142 11.0172C15.6166 11.0545 15.4349 11.1506 15.2927 11.2927C15.1506 11.4349 15.0545 11.6166 15.0172 11.8142L14.4917 14.5932C14.4703 14.7079 14.4094 14.8115 14.3197 14.8861C14.2299 14.9606 14.1169 15.0014 14.0002 15.0014C13.8835 15.0014 13.7705 14.9606 13.6808 14.8861C13.591 14.8115 13.5301 14.7079 13.5087 14.5932L12.9832 11.8142C12.9459 11.6166 12.8499 11.4349 12.7077 11.2927C12.5655 11.1506 12.3838 11.0545 12.1862 11.0172L9.40722 10.4917C9.29252 10.4703 9.18893 10.4094 9.11438 10.3197C9.03983 10.2299 8.99902 10.1169 8.99902 10.0002C8.99902 9.88354 9.03983 9.77053 9.11438 9.68077C9.18893 9.59101 9.29252 9.53014 9.40722 9.50872L12.1862 8.98322C12.3838 8.9459 12.5655 8.84988 12.7077 8.70771C12.8499 8.56553 12.9459 8.38379 12.9832 8.18622L13.5087 5.40722Z" stroke="white" stroke-linecap="round" stroke-linejoin="round"/>
<path d="M18 5V7" stroke="white" stroke-linecap="round" stroke-linejoin="round"/>
<path d="M19 6H17" stroke="white" stroke-linecap="round" stroke-linejoin="round"/>
<path d="M10 15C10.5523 15 11 14.5523 11 14C11 13.4477 10.5523 13 10 13C9.44772 13 9 13.4477 9 14C9 14.5523 9.44772 15 10 15Z" stroke="white" stroke-linecap="round" stroke-linejoin="round"/>
</g>
<path d="M32.872 12.012H34.12V16.008H32.872V12.012ZM28.552 11.628H38.464V12.66H28.552V11.628ZM32.872 6.948H33.976V7.212C33.976 7.588 33.904 7.944 33.76 8.28C33.624 8.616 33.424 8.932 33.16 9.228C32.904 9.516 32.592 9.776 32.224 10.008C31.856 10.232 31.448 10.424 31 10.584C30.552 10.736 30.072 10.844 29.56 10.908L29.116 9.912C29.556 9.856 29.968 9.768 30.352 9.648C30.736 9.528 31.08 9.38 31.384 9.204C31.696 9.02 31.96 8.824 32.176 8.616C32.4 8.4 32.572 8.176 32.692 7.944C32.812 7.704 32.872 7.46 32.872 7.212V6.948ZM33.028 6.948H34.132V7.212C34.132 7.452 34.192 7.692 34.312 7.932C34.432 8.164 34.6 8.388 34.816 8.604C35.04 8.82 35.304 9.016 35.608 9.192C35.92 9.368 36.264 9.52 36.64 9.648C37.024 9.768 37.436 9.856 37.876 9.912L37.432 10.908C36.92 10.844 36.44 10.736 35.992 10.584C35.544 10.424 35.136 10.228 34.768 9.996C34.408 9.764 34.096 9.504 33.832 9.216C33.576 8.92 33.376 8.604 33.232 8.268C33.096 7.932 33.028 7.58 33.028 7.212V6.948ZM29.488 6.324H37.528V7.332H29.488V6.324ZM32.872 5.04H34.12V6.672H32.872V5.04ZM42.2071 7.128H43.2271V7.62C43.2271 8.276 43.1071 8.892 42.8671 9.468C42.6351 10.044 42.2911 10.548 41.8351 10.98C41.3871 11.404 40.8391 11.728 40.1911 11.952L39.5671 10.968C40.1351 10.776 40.6151 10.512 41.0071 10.176C41.3991 9.832 41.6951 9.44 41.8951 9C42.1031 8.56 42.2071 8.1 42.2071 7.62V7.128ZM42.4231 7.128H43.4551V7.62C43.4551 8.068 43.5591 8.5 43.7671 8.916C43.9751 9.332 44.2751 9.704 44.6671 10.032C45.0671 10.352 45.5471 10.596 46.1071 10.764L45.5071 11.76C44.8591 11.552 44.3031 11.244 43.8391 10.836C43.3831 10.428 43.0311 9.948 42.7831 9.396C42.5431 8.844 42.4231 8.252 42.4231 7.62V7.128ZM39.8911 6.42H45.7591V7.416H39.8911V6.42ZM42.2071 5.1H43.4551V6.792H42.2071V5.1ZM45.3991 8.316H48.0751V9.348H45.3991V8.316ZM47.4151 5.028H48.6751V13.176H47.4151V5.028ZM41.5711 14.748H48.9631V15.768H41.5711V14.748ZM41.5711 12.48H42.8311V15.372H41.5711V12.48Z" fill="white"/>
<defs>
<linearGradient id="paint0_linear_242_2139" x1="0" y1="10" x2="56.7656" y2="10" gradientUnits="userSpaceOnUse">
<stop stop-color="#FE9A00"/>
<stop offset="1" stop-color="#F54900"/>
</linearGradient>
<clipPath id="clip0_242_2139">
<rect width="12" height="12" fill="white" transform="translate(8 4)"/>
</clipPath>
</defs>
</svg>
