<svg width="20" height="20" viewBox="0 0 20 20" fill="none" xmlns="http://www.w3.org/2000/svg">
<path d="M1.66669 7.49984C2.32973 7.49984 2.96561 7.76323 3.43445 8.23207C3.90329 8.70091 4.16669 9.3368 4.16669 9.99984C4.16669 10.6629 3.90329 11.2988 3.43445 11.7676C2.96561 12.2364 2.32973 12.4998 1.66669 12.4998V14.1665C1.66669 14.6085 1.84228 15.0325 2.15484 15.345C2.4674 15.6576 2.89133 15.8332 3.33335 15.8332H16.6667C17.1087 15.8332 17.5326 15.6576 17.8452 15.345C18.1578 15.0325 18.3334 14.6085 18.3334 14.1665V12.4998C17.6703 12.4998 17.0344 12.2364 16.5656 11.7676C16.0967 11.2988 15.8334 10.6629 15.8334 9.99984C15.8334 9.3368 16.0967 8.70091 16.5656 8.23207C17.0344 7.76323 17.6703 7.49984 18.3334 7.49984V5.83317C18.3334 5.39114 18.1578 4.96722 17.8452 4.65466C17.5326 4.3421 17.1087 4.1665 16.6667 4.1665H3.33335C2.89133 4.1665 2.4674 4.3421 2.15484 4.65466C1.84228 4.96722 1.66669 5.39114 1.66669 5.83317V7.49984Z" stroke="#00A6F4" stroke-width="1.66667" stroke-linecap="round" stroke-linejoin="round"/>
<path d="M10.8333 4.1665V5.83317" stroke="#00A6F4" stroke-width="1.66667" stroke-linecap="round" stroke-linejoin="round"/>
<path d="M10.8333 14.1665V15.8332" stroke="#00A6F4" stroke-width="1.66667" stroke-linecap="round" stroke-linejoin="round"/>
<path d="M10.8333 9.1665V10.8332" stroke="#00A6F4" stroke-width="1.66667" stroke-linecap="round" stroke-linejoin="round"/>
</svg>
