<svg width="1051" height="188" viewBox="0 0 1051 188" fill="none" xmlns="http://www.w3.org/2000/svg">
<path d="M0 74L64 54L128 74L64 94L0 74Z" fill="white"/>
<path opacity="0.8" d="M64.4941 88.0426C91.2084 88.0426 112.865 81.9461 112.865 74.4256C112.865 66.9051 91.2084 60.8086 64.4941 60.8086C37.7798 60.8086 16.1235 66.9051 16.1235 74.4256C16.1235 81.9461 37.7798 88.0426 64.4941 88.0426Z" fill="white"/>
<path d="M67.7188 74.4253H61.2694V122.085H67.7188V74.4253Z" fill="white"/>
<path d="M64.4941 134C68.9465 134 72.5558 130.189 72.5558 125.489C72.5558 120.789 68.9465 116.979 64.4941 116.979C60.0417 116.979 56.4323 120.789 56.4323 125.489C56.4323 130.189 60.0417 134 64.4941 134Z" fill="white"/>
<path d="M128.988 74.4253L154.786 108.468" stroke="#F97316" stroke-width="2" stroke-linecap="round"/>
<path d="M154.786 123.787C159.238 123.787 162.848 119.977 162.848 115.277C162.848 110.576 159.238 106.766 154.786 106.766C150.333 106.766 146.724 110.576 146.724 115.277C146.724 119.977 150.333 123.787 154.786 123.787Z" fill="#F97316"/>
<g opacity="0.6">
<path d="M1019.92 15.2246L1031.07 17.5677L1038.37 10.3308L1040.1 22.608L1049.39 29.4021L1039.93 33.1755L1038.8 42.8882L1030.23 35.1949L1018.62 35.5048L1024.02 26.5583L1019.92 15.2246Z" fill="white"/>
<path d="M851 114L857 124.667L867 126.8L859 135.333L861 146L851 141.733L841 146L843 135.333L835 126.8L845 124.667L851 114Z" fill="white"/>
</g>
<path d="M1027.5 128.343L993.453 134.851C989.928 135.525 987.596 139.222 988.245 143.109L992.16 166.568C992.809 170.455 996.193 173.059 999.718 172.385L1033.76 165.878C1037.29 165.204 1039.62 161.507 1038.97 157.62L1035.05 134.161C1034.41 130.274 1031.02 127.67 1027.5 128.343Z" fill="white"/>
<path d="M1019.82 161.281C1025.7 160.158 1029.58 153.996 1028.5 147.518C1027.42 141.04 1021.78 136.699 1015.9 137.822C1010.03 138.945 1006.14 145.107 1007.22 151.585C1008.31 158.063 1013.95 162.404 1019.82 161.281Z" fill="#4FC3F7"/>
<path opacity="0.6" d="M1019.04 156.589C1022.56 155.915 1024.89 152.218 1024.25 148.331C1023.6 144.444 1020.21 141.839 1016.69 142.513C1013.16 143.187 1010.83 146.884 1011.48 150.771C1012.13 154.658 1015.51 157.262 1019.04 156.589Z" fill="white"/>
<path d="M1011.04 121.807L998.27 124.248C995.92 124.697 994.365 127.162 994.798 129.753C995.23 132.344 997.486 134.08 999.836 133.631L1012.6 131.191C1014.95 130.742 1016.51 128.277 1016.07 125.686C1015.64 123.094 1013.39 121.358 1011.04 121.807Z" fill="white"/>
<path d="M1029.26 138.9C1031.02 138.563 1032.19 136.714 1031.86 134.771C1031.54 132.827 1029.85 131.525 1028.08 131.862C1026.32 132.199 1025.16 134.048 1025.48 135.991C1025.8 137.934 1027.5 139.237 1029.26 138.9Z" fill="#FB923C"/>
</svg>
