<svg width="16" height="16" viewBox="0 0 16 16" fill="none" xmlns="http://www.w3.org/2000/svg">
<g clip-path="url(#clip0_242_3627)">
<path d="M12 5.3335C12 7.74216 9.42067 10.2862 8.40467 11.1968C8.28844 11.2856 8.14625 11.3337 8 11.3337C7.85375 11.3337 7.71156 11.2856 7.59533 11.1968C6.58 10.2862 4 7.74216 4 5.3335C4 4.27263 4.42143 3.25521 5.17157 2.50507C5.92172 1.75492 6.93913 1.3335 8 1.3335C9.06087 1.3335 10.0783 1.75492 10.8284 2.50507C11.5786 3.25521 12 4.27263 12 5.3335Z" stroke="#0EA5E9" stroke-width="1.33333" stroke-linecap="round" stroke-linejoin="round"/>
<path d="M8.00002 6.66667C8.7364 6.66667 9.33335 6.06971 9.33335 5.33333C9.33335 4.59695 8.7364 4 8.00002 4C7.26364 4 6.66669 4.59695 6.66669 5.33333C6.66669 6.06971 7.26364 6.66667 8.00002 6.66667Z" stroke="#0EA5E9" stroke-width="1.33333" stroke-linecap="round" stroke-linejoin="round"/>
<path d="M5.80933 9.3335H3.336C3.19622 9.33356 3.05999 9.37755 2.94658 9.45926C2.83317 9.54097 2.74831 9.65626 2.704 9.78883L1.368 13.7888C1.33451 13.889 1.32531 13.9958 1.34117 14.1002C1.35703 14.2047 1.39749 14.3039 1.45922 14.3896C1.52094 14.4754 1.60216 14.5452 1.69619 14.5934C1.79021 14.6416 1.89434 14.6668 2 14.6668H14C14.1056 14.6667 14.2096 14.6416 14.3036 14.5934C14.3975 14.5453 14.4787 14.4755 14.5404 14.3898C14.6021 14.3042 14.6426 14.2051 14.6585 14.1007C14.6745 13.9963 14.6654 13.8897 14.632 13.7895L13.2987 9.7895C13.2544 9.65669 13.1695 9.54118 13.056 9.45933C12.9424 9.37749 12.806 9.33346 12.666 9.3335H10.1913" stroke="#0EA5E9" stroke-width="1.33333" stroke-linecap="round" stroke-linejoin="round"/>
</g>
<defs>
<clipPath id="clip0_242_3627">
<rect width="16" height="16" fill="white"/>
</clipPath>
</defs>
</svg>
