<svg width="14" height="14" viewBox="0 0 14 14" fill="none" xmlns="http://www.w3.org/2000/svg">
<g clip-path="url(#clip0_242_3752)">
<path d="M11.5365 5.7679C11.5365 8.64798 8.34146 11.6475 7.26857 12.5738C7.16862 12.649 7.04695 12.6896 6.9219 12.6896C6.79684 12.6896 6.67517 12.649 6.57523 12.5738C5.50233 11.6475 2.30731 8.64798 2.30731 5.7679C2.30731 4.54404 2.79349 3.3703 3.65889 2.5049C4.52429 1.6395 5.69803 1.15332 6.9219 1.15332C8.14576 1.15332 9.3195 1.6395 10.1849 2.5049C11.0503 3.3703 11.5365 4.54404 11.5365 5.7679Z" stroke="white" stroke-opacity="0.9" stroke-width="1.15365" stroke-linecap="round" stroke-linejoin="round"/>
<path d="M6.92188 7.49902C7.87759 7.49902 8.65234 6.72427 8.65234 5.76855C8.65234 4.81284 7.87759 4.03809 6.92188 4.03809C5.96616 4.03809 5.19141 4.81284 5.19141 5.76855C5.19141 6.72427 5.96616 7.49902 6.92188 7.49902Z" stroke="white" stroke-opacity="0.9" stroke-width="1.15365" stroke-linecap="round" stroke-linejoin="round"/>
</g>
<defs>
<clipPath id="clip0_242_3752">
<rect width="13.8438" height="13.8438" fill="white"/>
</clipPath>
</defs>
</svg>
